REM DIRINDEX 1\2,1\4,1\5,1\6,1\7,1\3\8,1\3\9,1\3\10
REM DIRNAME cjc113,folder01,folder02,folder03,folder04,folder05,folder06,folder07,folder08,folder09
TITLE ""
FILE "DB4500_5th_2A_34.mp3" MP3
  TRACK 01 AUDIO
    TITLE "0:"
    INDEX 01 00:00:00
  TRACK 02 AUDIO
    TITLE "8:cjc113_1265"
    INDEX 01 00:00:01
  TRACK 03 AUDIO
    TITLE "0:"
    INDEX 01 00:01:30
  TRACK 04 AUDIO
    TITLE "9:cjc113_1266"
    INDEX 01 00:01:42
  TRACK 05 AUDIO
    TITLE "0:"
    INDEX 01 00:02:69
  TRACK 06 AUDIO
    TITLE "10:cjc113_1267"
    INDEX 01 00:03:15
  TRACK 07 AUDIO
    TITLE "0:"
    INDEX 01 00:05:36
  TRACK 08 AUDIO
    TITLE "8:cjc113_1268"
    INDEX 01 00:06:10
  TRACK 09 AUDIO
    TITLE "0:"
    INDEX 01 00:07:19
  TRACK 10 AUDIO
    TITLE "9:cjc113_1269"
    INDEX 01 00:07:41
  TRACK 11 AUDIO
    TITLE "0:"
    INDEX 01 00:08:60
  TRACK 12 AUDIO
    TITLE "10:cjc113_1270"
    INDEX 01 00:09:08
  TRACK 13 AUDIO
    TITLE "0:"
    INDEX 01 00:11:66
  TRACK 14 AUDIO
    TITLE "8:cjc113_1271"
    INDEX 01 00:12:40
  TRACK 15 AUDIO
    TITLE "0:"
    INDEX 01 00:13:55
  TRACK 16 AUDIO
    TITLE "9:cjc113_1272"
    INDEX 01 00:14:02
  TRACK 17 AUDIO
    TITLE "0:"
    INDEX 01 00:15:44
  TRACK 18 AUDIO
    TITLE "10:cjc113_1273"
    INDEX 01 00:15:66
  TRACK 19 AUDIO
    TITLE "0:"
    INDEX 01 00:18:19
  TRACK 20 AUDIO
    TITLE "8:cjc113_1274"
    INDEX 01 00:18:66
  TRACK 21 AUDIO
    TITLE "0:"
    INDEX 01 00:20:00
  TRACK 22 AUDIO
    TITLE "9:cjc113_1275"
    INDEX 01 00:20:18
  TRACK 23 AUDIO
    TITLE "0:"
    INDEX 01 00:21:43
  TRACK 24 AUDIO
    TITLE "10:cjc113_1276"
    INDEX 01 00:21:68
  TRACK 25 AUDIO
    TITLE "0:"
    INDEX 01 00:24:55
  TRACK 26 AUDIO
    TITLE "8:cjc113_1277"
    INDEX 01 00:25:27
  TRACK 27 AUDIO
    TITLE "0:"
    INDEX 01 00:26:54
  TRACK 28 AUDIO
    TITLE "9:cjc113_1278"
    INDEX 01 00:26:73
  TRACK 29 AUDIO
    TITLE "0:"
    INDEX 01 00:28:12
  TRACK 30 AUDIO
    TITLE "10:cjc113_1279"
    INDEX 01 00:28:31
  TRACK 31 AUDIO
    TITLE "0:"
    INDEX 01 00:31:00
  TRACK 32 AUDIO
    TITLE "8:cjc113_1280"
    INDEX 01 00:31:49
  TRACK 33 AUDIO
    TITLE "0:"
    INDEX 01 00:33:07
  TRACK 34 AUDIO
    TITLE "9:cjc113_1281"
    INDEX 01 00:33:32
  TRACK 35 AUDIO
    TITLE "0:"
    INDEX 01 00:34:42
  TRACK 36 AUDIO
    TITLE "10:cjc113_1282"
    INDEX 01 00:34:61
  TRACK 37 AUDIO
    TITLE "0:"
    INDEX 01 00:37:73
  TRACK 38 AUDIO
    TITLE "8:cjc113_1283"
    INDEX 01 00:38:43
  TRACK 39 AUDIO
    TITLE "0:"
    INDEX 01 00:39:51
  TRACK 40 AUDIO
    TITLE "9:cjc113_1284"
    INDEX 01 00:39:72
  TRACK 41 AUDIO
    TITLE "0:"
    INDEX 01 00:41:22
  TRACK 42 AUDIO
    TITLE "10:cjc113_1285"
    INDEX 01 00:41:44
  TRACK 43 AUDIO
    TITLE "0:"
    INDEX 01 00:45:22
  TRACK 44 AUDIO
    TITLE "8:cjc113_1286"
    INDEX 01 00:45:71
  TRACK 45 AUDIO
    TITLE "0:"
    INDEX 01 00:47:03
  TRACK 46 AUDIO
    TITLE "9:cjc113_1287"
    INDEX 01 00:47:27
  TRACK 47 AUDIO
    TITLE "0:"
    INDEX 01 00:48:40
  TRACK 48 AUDIO
    TITLE "10:cjc113_1288"
    INDEX 01 00:48:63
  TRACK 49 AUDIO
    TITLE "0:"
    INDEX 01 00:51:52
  TRACK 50 AUDIO
    TITLE "8:cjc113_1289"
    INDEX 01 00:52:24
  TRACK 51 AUDIO
    TITLE "0:"
    INDEX 01 00:53:31
  TRACK 52 AUDIO
    TITLE "9:cjc113_1290"
    INDEX 01 00:53:57
  TRACK 53 AUDIO
    TITLE "0:"
    INDEX 01 00:55:20
  TRACK 54 AUDIO
    TITLE "10:cjc113_1291"
    INDEX 01 00:55:42
  TRACK 55 AUDIO
    TITLE "0:"
    INDEX 01 00:59:02
  TRACK 56 AUDIO
    TITLE "8:cjc113_1292"
    INDEX 01 00:59:49
  TRACK 57 AUDIO
    TITLE "0:"
    INDEX 01 01:00:55
  TRACK 58 AUDIO
    TITLE "9:cjc113_1293"
    INDEX 01 01:01:11
  TRACK 59 AUDIO
    TITLE "0:"
    INDEX 01 01:02:61
  TRACK 60 AUDIO
    TITLE "10:cjc113_1294"
    INDEX 01 01:03:08
  TRACK 61 AUDIO
    TITLE "0:"
    INDEX 01 01:07:17
  TRACK 62 AUDIO
    TITLE "8:cjc113_1295"
    INDEX 01 01:07:72
  TRACK 63 AUDIO
    TITLE "0:"
    INDEX 01 01:09:01
  TRACK 64 AUDIO
    TITLE "9:cjc113_1296"
    INDEX 01 01:09:26
  TRACK 65 AUDIO
    TITLE "0:"
    INDEX 01 01:10:45
  TRACK 66 AUDIO
    TITLE "10:cjc113_1297"
    INDEX 01 01:10:67
  TRACK 67 AUDIO
    TITLE "0:"
    INDEX 01 01:13:22
  TRACK 68 AUDIO
    TITLE "10:cjc113_1298"
    INDEX 01 01:13:67
  TRACK 69 AUDIO
    TITLE "0:"
    INDEX 01 01:16:22
  TRACK 70 AUDIO
    TITLE "8:cjc113_1299"
    INDEX 01 01:16:69
  TRACK 71 AUDIO
    TITLE "0:"
    INDEX 01 01:18:19
  TRACK 72 AUDIO
    TITLE "9:cjc113_1300"
    INDEX 01 01:18:41
  TRACK 73 AUDIO
    TITLE "0:"
    INDEX 01 01:20:42
  TRACK 74 AUDIO
    TITLE "10:cjc113_1301"
    INDEX 01 01:20:67
  TRACK 75 AUDIO
    TITLE "0:"
    INDEX 01 01:24:30
  TRACK 76 AUDIO
    TITLE "10:cjc113_1302"
    INDEX 01 01:25:06
  TRACK 77 AUDIO
    TITLE "0:"
    INDEX 01 01:28:57
  TRACK 78 AUDIO
    TITLE "8:cjc113_1303"
    INDEX 01 01:29:31
  TRACK 79 AUDIO
    TITLE "0:"
    INDEX 01 01:30:48
  TRACK 80 AUDIO
    TITLE "9:cjc113_1304"
    INDEX 01 01:30:71
  TRACK 81 AUDIO
    TITLE "0:"
    INDEX 01 01:32:74
  TRACK 82 AUDIO
    TITLE "10:cjc113_1305"
    INDEX 01 01:33:21
  TRACK 83 AUDIO
    TITLE "0:"
    INDEX 01 01:37:15
